<?xml version="1.0" encoding="utf-8" standalone="no"?>
<!DOCTYPE svg PUBLIC "-//W3C//DTD SVG 1.1//EN"
  "http://www.w3.org/Graphics/SVG/1.1/DTD/svg11.dtd">
<svg xmlns:xlink="http://www.w3.org/1999/xlink" width="712.8pt" height="604.637812pt" viewBox="0 0 712.8 604.637812" xmlns="http://www.w3.org/2000/svg" version="1.1">
 <metadata>
  <rdf:RDF xmlns:dc="http://purl.org/dc/elements/1.1/" xmlns:cc="http://creativecommons.org/ns#" xmlns:rdf="http://www.w3.org/1999/02/22-rdf-syntax-ns#">
   <cc:Work>
    <dc:type rdf:resource="http://purl.org/dc/dcmitype/StillImage"/>
    <dc:date>2026-10-06T10:03:03.747979</dc:date>
    <dc:format>image/svg+xml</dc:format>
    <dc:creator>
     <cc:Agent>
      <dc:title>Matplotlib v3.10.8, https://matplotlib.org/</dc:title>
     </cc:Agent>
    </dc:creator>
   </cc:Work>
  </rdf:RDF>
 </metadata>
 <defs>
  <style type="text/css">*{stroke-linejoin: round; stroke-linecap: butt}</style>
 </defs>
 <g id="figure_1">
  <g id="patch_1">
   <path d="M 0 604.637812 
L 712.8 604.637812 
L 712.8 0 
L 0 0 
z
" style="fill: #ffffff"/>
  </g>
  <g id="axes_1">
   <g id="patch_2">
    <path d="M 36.3 116.869812 
L 676.5 116.869812 
Q 685.23 116.869812 685.23 111.193812 
L 685.23 54.433812 
Q 685.23 48.757812 676.5 48.757812 
L 36.3 48.757812 
Q 27.57 48.757812 27.57 54.433812 
L 27.57 111.193812 
Q 27.57 116.869812 36.3 116.869812 
z
" clip-path="url(#paf6e1a466f)" style="fill: #4c72b0; opacity: 0.12; stroke: #4c72b0; stroke-width: 1.4; stroke-linejoin: miter"/>
   </g>
   <g id="patch_3">
    <path d="M 36.3 203.901812 
L 676.5 203.901812 
Q 685.23 203.901812 685.23 198.225812 
L 685.23 141.465812 
Q 685.23 135.789812 676.5 135.789812 
L 36.3 135.789812 
Q 27.57 135.789812 27.57 141.465812 
L 27.57 198.225812 
Q 27.57 203.901812 36.3 203.901812 
z
" clip-path="url(#paf6e1a466f)" style="fill: #4c72b0; opacity: 0.12; stroke: #4c72b0; stroke-width: 1.4; stroke-linejoin: miter"/>
   </g>
   <g id="patch_4">
    <path d="M 36.3 309.853812 
L 676.5 309.853812 
Q 685.23 309.853812 685.23 304.177812 
L 685.23 224.713812 
Q 685.23 219.037812 676.5 219.037812 
L 36.3 219.037812 
Q 27.57 219.037812 27.57 224.713812 
L 27.57 304.177812 
Q 27.57 309.853812 36.3 309.853812 
z
" clip-path="url(#paf6e1a466f)" style="fill: #b08d57; opacity: 0.12; stroke: #b08d57; stroke-width: 1.4; stroke-linejoin: miter"/>
   </g>
   <g id="patch_5">
    <path d="M 36.3 455.537812 
L 676.5 455.537812 
Q 685.23 455.537812 685.23 449.861812 
L 685.23 321.205812 
Q 685.23 315.529812 676.5 315.529812 
L 36.3 315.529812 
Q 27.57 315.529812 27.57 321.205812 
L 27.57 449.861812 
Q 27.57 455.537812 36.3 455.537812 
z
" clip-path="url(#paf6e1a466f)" style="fill: #8172b2; opacity: 0.12; stroke: #8172b2; stroke-width: 1.4; stroke-linejoin: miter"/>
   </g>
   <g id="patch_6">
    <path d="M 36.3 546.353813 
L 676.5 546.353813 
Q 685.23 546.353813 685.23 540.677812 
L 685.23 472.565812 
Q 685.23 466.889812 676.5 466.889812 
L 36.3 466.889812 
Q 27.57 466.889812 27.57 472.565812 
L 27.57 540.677812 
Q 27.57 546.353813 36.3 546.353813 
z
" clip-path="url(#paf6e1a466f)" style="fill: #c44e52; opacity: 0.12; stroke: #c44e52; stroke-width: 1.4; stroke-linejoin: miter"/>
   </g>
   <g id="patch_7">
    <path d="M 262.116 110.626212 
L 450.684 110.626212 
Q 458.832 110.626212 458.832 105.328612 
L 458.832 79.219012 
Q 458.832 73.921412 450.684 73.921412 
L 262.116 73.921412 
Q 253.968 73.921412 253.968 79.219012 
L 253.968 105.328612 
Q 253.968 110.626212 262.116 110.626212 
z
" clip-path="url(#paf6e1a466f)" style="fill: #4c72b0"/>
   </g>
   <g id="patch_8">
    <path d="M 221.376 197.658212 
L 491.424 197.658212 
Q 499.572 197.658212 499.572 192.360612 
L 499.572 166.251012 
Q 499.572 160.953412 491.424 160.953412 
L 221.376 160.953412 
Q 213.228 160.953412 213.228 166.251012 
L 213.228 192.360612 
Q 213.228 197.658212 221.376 197.658212 
z
" clip-path="url(#paf6e1a466f)" style="fill: #4c72b0"/>
   </g>
   <g id="patch_9">
    <path d="M 116.616 291.312212 
L 596.184 291.312212 
Q 604.332 291.312212 604.332 286.014612 
L 604.332 250.445012 
Q 604.332 245.147412 596.184 245.147412 
L 116.616 245.147412 
Q 108.468 245.147412 108.468 250.445012 
L 108.468 286.014612 
Q 108.468 291.312212 116.616 291.312212 
z
" clip-path="url(#paf6e1a466f)" style="fill: #b08d57"/>
   </g>
   <g id="patch_10">
    <path d="M 58.416 389.696212 
L 328.464 389.696212 
Q 336.612 389.696212 336.612 384.398612 
L 336.612 345.045012 
Q 336.612 339.747412 328.464 339.747412 
L 58.416 339.747412 
Q 50.268 339.747412 50.268 345.045012 
L 50.268 384.398612 
Q 50.268 389.696212 58.416 389.696212 
z
" clip-path="url(#paf6e1a466f)" style="fill: #8172b2"/>
   </g>
   <g id="patch_11">
    <path d="M 384.336 389.696212 
L 654.384 389.696212 
Q 662.532 389.696212 662.532 384.398612 
L 662.532 345.045012 
Q 662.532 339.747412 654.384 339.747412 
L 384.336 339.747412 
Q 376.188 339.747412 376.188 345.045012 
L 376.188 384.398612 
Q 376.188 389.696212 384.336 389.696212 
z
" clip-path="url(#paf6e1a466f)" style="fill: #55a868"/>
   </g>
   <g id="patch_12">
    <path d="M 174.816 449.294212 
L 537.984 449.294212 
Q 546.132 449.294212 546.132 443.996612 
L 546.132 417.887012 
Q 546.132 412.589412 537.984 412.589412 
L 174.816 412.589412 
Q 166.668 412.589412 166.668 417.887012 
L 166.668 443.996612 
Q 166.668 449.294212 174.816 449.294212 
z
" clip-path="url(#paf6e1a466f)" style="fill: #dd8452"/>
   </g>
   <g id="patch_13">
    <path d="M 58.416 533.488212 
L 328.464 533.488212 
Q 336.612 533.488212 336.612 528.190612 
L 336.612 496.405012 
Q 336.612 491.107412 328.464 491.107412 
L 58.416 491.107412 
Q 50.268 491.107412 50.268 496.405012 
L 50.268 528.190612 
Q 50.268 533.488212 58.416 533.488212 
z
" clip-path="url(#paf6e1a466f)" style="fill: #c44e52"/>
   </g>
   <g id="patch_14">
    <path d="M 384.336 533.488212 
L 654.384 533.488212 
Q 662.532 533.488212 662.532 528.190612 
L 662.532 496.405012 
Q 662.532 491.107412 654.384 491.107412 
L 384.336 491.107412 
Q 376.188 491.107412 376.188 496.405012 
L 376.188 528.190612 
Q 376.188 533.488212 384.336 533.488212 
z
" clip-path="url(#paf6e1a466f)" style="fill: #c44e52"/>
   </g>
   <g id="patch_15">
    <path d="M 356.4 113.092141 
Q 356.4 135.790286 356.4 158.488432 
" clip-path="url(#paf6e1a466f)" style="fill: none; stroke: #555555; stroke-width: 1.6; stroke-linecap: round"/>
    <path d="M 353.4 119.092141 
L 356.4 113.092141 
L 359.4 119.092141 
z
" clip-path="url(#paf6e1a466f)" style="fill: #555555; stroke: #555555; stroke-width: 1.6; stroke-linecap: round"/>
    <path d="M 359.4 152.488432 
L 356.4 158.488432 
L 353.4 152.488432 
z
" clip-path="url(#paf6e1a466f)" style="fill: #555555; stroke: #555555; stroke-width: 1.6; stroke-linecap: round"/>
   </g>
   <g id="patch_16">
    <path d="M 356.4 200.121254 
Q 356.4 221.875961 356.4 243.630669 
" clip-path="url(#paf6e1a466f)" style="fill: none; stroke: #555555; stroke-width: 1.6; stroke-linecap: round"/>
    <path d="M 353.4 206.121254 
L 356.4 200.121254 
L 359.4 206.121254 
z
" clip-path="url(#paf6e1a466f)" style="fill: #555555; stroke: #555555; stroke-width: 1.6; stroke-linecap: round"/>
    <path d="M 359.4 237.630669 
L 356.4 243.630669 
L 353.4 237.630669 
z
" clip-path="url(#paf6e1a466f)" style="fill: #555555; stroke: #555555; stroke-width: 1.6; stroke-linecap: round"/>
   </g>
   <g id="patch_17">
    <path d="M 298.2 292.829254 
Q 298.2 314.583961 298.2 336.338669 
" clip-path="url(#paf6e1a466f)" style="fill: none; stroke: #555555; stroke-width: 1.6; stroke-linecap: round"/>
    <path d="M 295.2 298.829254 
L 298.2 292.829254 
L 301.2 298.829254 
z
" clip-path="url(#paf6e1a466f)" style="fill: #555555; stroke: #555555; stroke-width: 1.6; stroke-linecap: round"/>
    <path d="M 301.2 330.338669 
L 298.2 336.338669 
L 295.2 330.338669 
z
" clip-path="url(#paf6e1a466f)" style="fill: #555555; stroke: #555555; stroke-width: 1.6; stroke-linecap: round"/>
   </g>
   <g id="patch_18">
    <path d="M 600.84 292.829254 
Q 600.84 314.583961 600.84 336.338669 
" clip-path="url(#paf6e1a466f)" style="fill: none; stroke: #555555; stroke-width: 1.6; stroke-linecap: round"/>
    <path d="M 597.84 298.829254 
L 600.84 292.829254 
L 603.84 298.829254 
z
" clip-path="url(#paf6e1a466f)" style="fill: #555555; stroke: #555555; stroke-width: 1.6; stroke-linecap: round"/>
    <path d="M 603.84 330.338669 
L 600.84 336.338669 
L 597.84 330.338669 
z
" clip-path="url(#paf6e1a466f)" style="fill: #555555; stroke: #555555; stroke-width: 1.6; stroke-linecap: round"/>
   </g>
   <g id="patch_19">
    <path d="M 356.4 391.216141 
Q 356.4 400.670703 356.4 410.125265 
" clip-path="url(#paf6e1a466f)" style="fill: none; stroke: #555555; stroke-width: 1.6; stroke-linecap: round"/>
    <path d="M 353.4 397.216141 
L 356.4 391.216141 
L 359.4 397.216141 
z
" clip-path="url(#paf6e1a466f)" style="fill: #555555; stroke: #555555; stroke-width: 1.6; stroke-linecap: round"/>
    <path d="M 359.4 404.125265 
L 356.4 410.125265 
L 353.4 404.125265 
z
" clip-path="url(#paf6e1a466f)" style="fill: #555555; stroke: #555555; stroke-width: 1.6; stroke-linecap: round"/>
   </g>
   <g id="patch_20">
    <path d="M 193.44 453.650639 
Q 193.44 471.62016 193.44 489.589682 
" clip-path="url(#paf6e1a466f)" style="fill: none; stroke: #555555; stroke-width: 1.6; stroke-linecap: round"/>
    <path d="M 190.44 459.650639 
L 193.44 453.650639 
L 196.44 459.650639 
z
" clip-path="url(#paf6e1a466f)" style="fill: #555555; stroke: #555555; stroke-width: 1.6; stroke-linecap: round"/>
    <path d="M 196.44 483.589682 
L 193.44 489.589682 
L 190.44 483.589682 
z
" clip-path="url(#paf6e1a466f)" style="fill: #555555; stroke: #555555; stroke-width: 1.6; stroke-linecap: round"/>
   </g>
   <g id="patch_21">
    <path d="M 519.36 453.650639 
Q 519.36 471.62016 519.36 489.589682 
" clip-path="url(#paf6e1a466f)" style="fill: none; stroke: #555555; stroke-width: 1.6; stroke-linecap: round"/>
    <path d="M 516.36 459.650639 
L 519.36 453.650639 
L 522.36 459.650639 
z
" clip-path="url(#paf6e1a466f)" style="fill: #555555; stroke: #555555; stroke-width: 1.6; stroke-linecap: round"/>
    <path d="M 522.36 483.589682 
L 519.36 489.589682 
L 516.36 483.589682 
z
" clip-path="url(#paf6e1a466f)" style="fill: #555555; stroke: #555555; stroke-width: 1.6; stroke-linecap: round"/>
   </g>
   <g id="text_1">
    <text style="font-weight: 700; font-size: 11.5px; font-family: 'DejaVu Sans', 'Bitstream Vera Sans', 'Computer Modern Sans Serif', 'Lucida Grande', 'Verdana', 'Geneva', 'Lucid', 'Arial', 'Helvetica', 'Avant Garde', sans-serif; text-anchor: start; fill: #4c72b0" x="50.85" y="70.650172" transform="rotate(-0 50.85 70.650172)">User Layer</text>
   </g>
   <g id="text_2">
    <text style="font-weight: 700; font-size: 11.5px; font-family: 'DejaVu Sans', 'Bitstream Vera Sans', 'Computer Modern Sans Serif', 'Lucida Grande', 'Verdana', 'Geneva', 'Lucid', 'Arial', 'Helvetica', 'Avant Garde', sans-serif; text-anchor: start; fill: #4c72b0" x="50.85" y="157.772016" transform="rotate(-0 50.85 157.772016)">Communication Layer - Telegram</text>
   </g>
   <g id="text_3">
    <text style="font-weight: 700; font-size: 11.5px; font-family: 'DejaVu Sans', 'Bitstream Vera Sans', 'Computer Modern Sans Serif', 'Lucida Grande', 'Verdana', 'Geneva', 'Lucid', 'Arial', 'Helvetica', 'Avant Garde', sans-serif; text-anchor: start; fill: #b08d57" x="50.85" y="241.020016" transform="rotate(-0 50.85 241.020016)">Orchestration Layer - Make.com</text>
   </g>
   <g id="text_4">
    <text style="font-weight: 700; font-size: 11.5px; font-family: 'DejaVu Sans', 'Bitstream Vera Sans', 'Computer Modern Sans Serif', 'Lucida Grande', 'Verdana', 'Geneva', 'Lucid', 'Arial', 'Helvetica', 'Avant Garde', sans-serif; text-anchor: start; fill: #8172b2" x="50.85" y="337.512016" transform="rotate(-0 50.85 337.512016)">Reasoning + Search Layer</text>
   </g>
   <g id="text_5">
    <text style="font-weight: 700; font-size: 11.5px; font-family: 'DejaVu Sans', 'Bitstream Vera Sans', 'Computer Modern Sans Serif', 'Lucida Grande', 'Verdana', 'Geneva', 'Lucid', 'Arial', 'Helvetica', 'Avant Garde', sans-serif; text-anchor: start; fill: #c44e52" x="50.85" y="488.782172" transform="rotate(-0 50.85 488.782172)">Storage Layer</text>
   </g>
   <g id="text_6">
    <text style="font-weight: 700; font-size: 9.5px; font-family: 'DejaVu Sans', 'Bitstream Vera Sans', 'Computer Modern Sans Serif', 'Lucida Grande', 'Verdana', 'Geneva', 'Lucid', 'Arial', 'Helvetica', 'Avant Garde', sans-serif; text-anchor: middle; fill: #ffffff" x="356.4" y="94.895219" transform="rotate(-0 356.4 94.895219)">User (student / researcher)</text>
   </g>
   <g id="text_7">
    <text style="font-weight: 700; font-size: 9.5px; font-family: 'DejaVu Sans', 'Bitstream Vera Sans', 'Computer Modern Sans Serif', 'Lucida Grande', 'Verdana', 'Geneva', 'Lucid', 'Arial', 'Helvetica', 'Avant Garde', sans-serif; fill: #ffffff" transform="translate(321.011758 176.210223)">Telegram Bot</text>
    <text style="font-weight: 700; font-size: 9.5px; font-family: 'DejaVu Sans', 'Bitstream Vera Sans', 'Computer Modern Sans Serif', 'Lucida Grande', 'Verdana', 'Geneva', 'Lucid', 'Arial', 'Helvetica', 'Avant Garde', sans-serif; fill: #ffffff" transform="translate(272.439297 187.644215)">receives request, sends results</text>
   </g>
   <g id="text_8">
    <text style="font-weight: 700; font-size: 9px; font-family: 'DejaVu Sans', 'Bitstream Vera Sans', 'Computer Modern Sans Serif', 'Lucida Grande', 'Verdana', 'Geneva', 'Lucid', 'Arial', 'Helvetica', 'Avant Garde', sans-serif; fill: #ffffff" transform="translate(212.476641 265.261992)">Make.com scenario: routers, iterator, filter, aggregators,</text>
    <text style="font-weight: 700; font-size: 9px; font-family: 'DejaVu Sans', 'Bitstream Vera Sans', 'Computer Modern Sans Serif', 'Lucida Grande', 'Verdana', 'Geneva', 'Lucid', 'Arial', 'Helvetica', 'Avant Garde', sans-serif; fill: #ffffff" transform="translate(238.078828 276.094195)">branching on 'enough' vs 'not enough' sources</text>
   </g>
   <g id="text_9">
    <text style="font-weight: 700; font-size: 9.5px; font-family: 'DejaVu Sans', 'Bitstream Vera Sans', 'Computer Modern Sans Serif', 'Lucida Grande', 'Verdana', 'Geneva', 'Lucid', 'Arial', 'Helvetica', 'Avant Garde', sans-serif; fill: #ffffff" transform="translate(130.529961 361.626223)">Gemini LLM (Google AI)</text>
    <text style="font-weight: 700; font-size: 9.5px; font-family: 'DejaVu Sans', 'Bitstream Vera Sans', 'Computer Modern Sans Serif', 'Lucida Grande', 'Verdana', 'Geneva', 'Lucid', 'Arial', 'Helvetica', 'Avant Garde', sans-serif; fill: #ffffff" transform="translate(92.023047 373.060215)">understand - evaluate - decide - write</text>
   </g>
   <g id="text_10">
    <text style="font-weight: 700; font-size: 9.5px; font-family: 'DejaVu Sans', 'Bitstream Vera Sans', 'Computer Modern Sans Serif', 'Lucida Grande', 'Verdana', 'Geneva', 'Lucid', 'Arial', 'Helvetica', 'Avant Garde', sans-serif; fill: #ffffff" transform="translate(460.114141 361.626223)">Tavily Web Search API</text>
    <text style="font-weight: 700; font-size: 9.5px; font-family: 'DejaVu Sans', 'Bitstream Vera Sans', 'Computer Modern Sans Serif', 'Lucida Grande', 'Verdana', 'Geneva', 'Lucid', 'Arial', 'Helvetica', 'Avant Garde', sans-serif; fill: #ffffff" transform="translate(444.67293 373.060215)">retrieves candidate sources</text>
   </g>
   <g id="text_11">
    <text style="font-weight: 700; font-size: 9px; font-family: 'DejaVu Sans', 'Bitstream Vera Sans', 'Computer Modern Sans Serif', 'Lucida Grande', 'Verdana', 'Geneva', 'Lucid', 'Arial', 'Helvetica', 'Avant Garde', sans-serif; text-anchor: middle; fill: #ffffff" x="356.4" y="433.390094" transform="rotate(-0 356.4 433.390094)">AI decisions: KEEP/REJECT, enough sources?, ask for detail</text>
   </g>
   <g id="text_12">
    <text style="font-weight: 700; font-size: 9.5px; font-family: 'DejaVu Sans', 'Bitstream Vera Sans', 'Computer Modern Sans Serif', 'Lucida Grande', 'Verdana', 'Geneva', 'Lucid', 'Arial', 'Helvetica', 'Avant Garde', sans-serif; fill: #ffffff" transform="translate(154.767578 509.202223)">Google Sheets</text>
    <text style="font-weight: 700; font-size: 9.5px; font-family: 'DejaVu Sans', 'Bitstream Vera Sans', 'Computer Modern Sans Serif', 'Lucida Grande', 'Verdana', 'Geneva', 'Lucid', 'Arial', 'Helvetica', 'Avant Garde', sans-serif; fill: #ffffff" transform="translate(118.151758 520.636215)">source + evaluation records</text>
   </g>
   <g id="text_13">
    <text style="font-weight: 700; font-size: 9.5px; font-family: 'DejaVu Sans', 'Bitstream Vera Sans', 'Computer Modern Sans Serif', 'Lucida Grande', 'Verdana', 'Geneva', 'Lucid', 'Arial', 'Helvetica', 'Avant Garde', sans-serif; fill: #ffffff" transform="translate(484.798555 509.202223)">Google Drive</text>
    <text style="font-weight: 700; font-size: 9.5px; font-family: 'DejaVu Sans', 'Bitstream Vera Sans', 'Computer Modern Sans Serif', 'Lucida Grande', 'Verdana', 'Geneva', 'Lucid', 'Arial', 'Helvetica', 'Avant Garde', sans-serif; fill: #ffffff" transform="translate(469.185898 520.636215)">research notes file</text>
   </g>
   <g id="text_14">
    <text style="font-weight: 700; font-size: 14px; font-family: 'DejaVu Sans', 'Bitstream Vera Sans', 'Computer Modern Sans Serif', 'Lucida Grande', 'Verdana', 'Geneva', 'Lucid', 'Arial', 'Helvetica', 'Avant Garde', sans-serif; text-anchor: middle" x="356.4" y="17.837812" transform="rotate(-0 356.4 17.837812)">AI Research Paper Assistant Agent - System Architecture</text>
   </g>
  </g>
 </g>
 <defs>
  <clipPath id="paf6e1a466f">
   <rect x="7.2" y="29.837812" width="698.4" height="567.6"/>
  </clipPath>
 </defs>
</svg>
